<svg width="40" height="41" viewBox="0 0 40 41" fill="none" xmlns="http://www.w3.org/2000/svg">
<path d="M19.9978 10.5417C14.3224 10.5417 9.74456 15.1206 9.74456 20.7972C9.74456 26.4739 14.3224 31.0527 19.9978 31.0527C25.6732 31.0527 30.251 26.4739 30.251 20.7972C30.251 15.1206 25.6732 10.5417 19.9978 10.5417ZM19.9978 27.4647C16.3302 27.4647 13.3318 24.4746 13.3318 20.7972C13.3318 17.1199 16.3212 14.1298 19.9978 14.1298C23.6743 14.1298 26.6637 17.1199 26.6637 20.7972C26.6637 24.4746 23.6654 27.4647 19.9978 27.4647V27.4647ZM33.0619 10.1222C33.0619 11.4522 31.9911 12.5143 30.6704 12.5143C29.3408 12.5143 28.2789 11.4432 28.2789 10.1222C28.2789 8.80126 29.3497 7.73019 30.6704 7.73019C31.9911 7.73019 33.0619 8.80126 33.0619 10.1222ZM39.8528 12.55C39.7011 9.34572 38.9693 6.50738 36.6224 4.16888C34.2844 1.83038 31.4467 1.09848 28.2432 0.937819C24.9414 0.750382 15.0452 0.750382 11.7434 0.937819C8.5488 1.08955 5.7111 1.82145 3.36419 4.15995C1.01729 6.49846 0.294476 9.33679 0.133852 12.5411C-0.0535436 15.8435 -0.0535436 25.742 0.133852 29.0445C0.285553 32.2488 1.01729 35.0871 3.36419 37.4256C5.7111 39.7641 8.53988 40.496 11.7434 40.6567C15.0452 40.8441 24.9414 40.8441 28.2432 40.6567C31.4467 40.5049 34.2844 39.773 36.6224 37.4256C38.9604 35.0871 39.6921 32.2488 39.8528 29.0445C40.0402 25.742 40.0402 15.8525 39.8528 12.55V12.55ZM35.5873 32.5879C34.8912 34.3374 33.5438 35.6851 31.7858 36.3902C29.1534 37.4345 22.9069 37.1935 19.9978 37.1935C17.0887 37.1935 10.8332 37.4256 8.2097 36.3902C6.46068 35.694 5.11322 34.3463 4.40825 32.5879C3.36419 29.9549 3.60513 23.707 3.60513 20.7972C3.60513 17.8875 3.37312 11.6307 4.40825 9.00655C5.10429 7.25713 6.45175 5.90937 8.2097 5.20425C10.8422 4.15995 17.0887 4.40095 19.9978 4.40095C22.9069 4.40095 29.1623 4.16888 31.7858 5.20425C33.5349 5.90044 34.8823 7.24821 35.5873 9.00655C36.6313 11.6396 36.3904 17.8875 36.3904 20.7972C36.3904 23.707 36.6313 29.9638 35.5873 32.5879Z" fill="url(#paint0_linear)"/>
<defs>
<linearGradient id="paint0_linear" x1="19.9933" y1="0.797241" x2="19.9933" y2="40.7972" gradientUnits="userSpaceOnUse">
<stop stop-color="#405DE6"/>
<stop offset="0.09375" stop-color="#5851DB"/>
<stop offset="0.197917" stop-color="#833AB4"/>
<stop offset="0.317708" stop-color="#C13584"/>
<stop offset="0.432292" stop-color="#E1306C"/>
<stop offset="0.536458" stop-color="#FD1D1D"/>
<stop offset="0.645833" stop-color="#F56040"/>
<stop offset="0.755208" stop-color="#F77737"/>
<stop offset="0.869792" stop-color="#FCAF45"/>
<stop offset="1" stop-color="#FFDC80"/>
</linearGradient>
</defs>
</svg>
