<svg width="41" height="41" viewBox="0 0 41 41" fill="none" xmlns="http://www.w3.org/2000/svg">
<path d="M37.7029 0.8125H3.40821C1.83678 0.8125 0.559998 2.10714 0.559998 3.69643V37.9286C0.559998 39.5179 1.83678 40.8125 3.40821 40.8125H37.7029C39.2743 40.8125 40.56 39.5179 40.56 37.9286V3.69643C40.56 2.10714 39.2743 0.8125 37.7029 0.8125ZM12.6493 35.0982H6.72071V16.0089H12.6582V35.0982H12.6493ZM9.685 13.4018C7.78321 13.4018 6.2475 11.8571 6.2475 9.96429C6.2475 8.07143 7.78321 6.52679 9.685 6.52679C11.5779 6.52679 13.1225 8.07143 13.1225 9.96429C13.1225 11.8661 11.5868 13.4018 9.685 13.4018V13.4018ZM34.8725 35.0982H28.9439V25.8125C28.9439 23.5982 28.8993 20.75 25.8636 20.75C22.7743 20.75 22.3011 23.1607 22.3011 25.6518V35.0982H16.3725V16.0089H22.06V18.6161H22.1404C22.935 17.1161 24.8725 15.5357 27.7564 15.5357C33.7564 15.5357 34.8725 19.4911 34.8725 24.6339V35.0982V35.0982Z" fill="#0E76A8"/>
</svg>
