<svg width="40" height="41" viewBox="0 0 40 41" fill="none" xmlns="http://www.w3.org/2000/svg">
<path d="M20 8.91964C13.5089 8.91964 8.23214 14.1964 8.22321 20.6875C8.22321 22.9107 8.84821 25.0804 10.0268 26.9464L10.3036 27.3929L9.11607 31.7321L13.5714 30.5625L14 30.8214C15.8036 31.8929 17.875 32.4643 19.9911 32.4643H20C26.4821 32.4643 31.9018 27.1875 31.9018 20.6964C31.9018 17.5536 30.5446 14.5982 28.3214 12.375C26.0893 10.1429 23.1429 8.91964 20 8.91964ZM26.9196 25.7411C26.625 26.5714 25.2143 27.3214 24.5357 27.4196C23.4107 27.5893 22.5357 27.5 20.2946 26.5357C16.75 25 14.4286 21.4286 14.25 21.1964C14.0714 20.9643 12.8036 19.2768 12.8036 17.5357C12.8036 15.7946 13.7143 14.9375 14.0446 14.5804C14.3661 14.2232 14.75 14.1339 14.9911 14.1339C15.2232 14.1339 15.4643 14.1339 15.6696 14.1429C15.8839 14.1518 16.1786 14.0625 16.4643 14.75C16.7589 15.4554 17.4643 17.1964 17.5536 17.375C17.6429 17.5536 17.7054 17.7589 17.5804 17.9911C16.9018 19.3482 16.1786 19.2946 16.5446 19.9196C17.9107 22.2679 19.2768 23.0804 21.3571 24.125C21.7143 24.3036 21.9196 24.2768 22.125 24.0357C22.3304 23.8036 23.0089 23 23.2411 22.6518C23.4732 22.2946 23.7143 22.3571 24.0357 22.4732C24.3571 22.5893 26.0982 23.4464 26.4554 23.625C26.8125 23.8036 27.0446 23.8929 27.1339 24.0357C27.2143 24.2054 27.2143 24.9196 26.9196 25.7411V25.7411ZM35.7143 0.8125H4.28571C1.91964 0.8125 0 2.73214 0 5.09821V36.5268C0 38.8929 1.91964 40.8125 4.28571 40.8125H35.7143C38.0804 40.8125 40 38.8929 40 36.5268V5.09821C40 2.73214 38.0804 0.8125 35.7143 0.8125ZM19.9911 34.8482C17.6161 34.8482 15.2857 34.25 13.2232 33.125L5.71429 35.0982L7.72321 27.7589C6.48214 25.6161 5.83036 23.1786 5.83036 20.6786C5.83929 12.875 12.1875 6.52679 19.9911 6.52679C23.7768 6.52679 27.3304 8 30.0089 10.6786C32.6786 13.3571 34.2857 16.9107 34.2857 20.6964C34.2857 28.5 27.7946 34.8482 19.9911 34.8482Z" fill="#56BD66"/>
</svg>
