<svg xmlns="http://www.w3.org/2000/svg" width="50" height="44" fill="none" viewBox="0 0 50 44"><path fill="#FFDE03" d="M45.3125 0.125H4.6875C2.09961 0.125 0 2.22461 0 4.8125V39.1875C0 41.7754 2.09961 43.875 4.6875 43.875H45.3125C47.9004 43.875 50 41.7754 50 39.1875V4.8125C50 2.22461 47.9004 0.125 45.3125 0.125ZM37.1484 28.4941C37.6172 28.9629 37.6172 29.7246 37.1484 30.1934L33.1934 34.1484C32.7246 34.6172 31.9629 34.6172 31.4941 34.1484L25 27.5957L18.5059 34.1484C18.0371 34.6172 17.2754 34.6172 16.8066 34.1484L12.8516 30.1934C12.3828 29.7246 12.3828 28.9629 12.8516 28.4941L19.4043 22L12.8516 15.5059C12.3828 15.0371 12.3828 14.2754 12.8516 13.8066L16.8066 9.85156C17.2754 9.38281 18.0371 9.38281 18.5059 9.85156L25 16.4043L31.4941 9.85156C31.9629 9.38281 32.7246 9.38281 33.1934 9.85156L37.1484 13.8066C37.6172 14.2754 37.6172 15.0371 37.1484 15.5059L30.5957 22L37.1484 28.4941Z"/></svg>