<svg width="20" height="20" viewBox="0 0 25 18" fill="none" xmlns="http://www.w3.org/2000/svg">
<path d="M24.1999 5.94375C24.3875 5.79844 24.6667 5.93437 24.6667 6.16406V15.75C24.6667 16.9922 23.632 18 22.3567 18H2.33667C1.06136 18 0.0266724 16.9922 0.0266724 15.75V6.16875C0.0266724 5.93438 0.300985 5.80312 0.493485 5.94844C1.57148 6.76406 3.0008 7.8 7.90955 11.2734C8.92498 11.9953 10.6382 13.5141 12.3467 13.5047C14.0647 13.5188 15.8117 11.9672 16.7886 11.2734C21.6974 7.8 23.1219 6.75938 24.1999 5.94375ZM12.3467 12C13.4632 12.0188 15.0705 10.6313 15.879 10.0594C22.2652 5.54531 22.7513 5.15156 24.2239 4.02656C24.503 3.81562 24.6667 3.4875 24.6667 3.14062V2.25C24.6667 1.00781 23.632 0 22.3567 0H2.33667C1.06136 0 0.0266724 1.00781 0.0266724 2.25V3.14062C0.0266724 3.4875 0.190297 3.81094 0.469422 4.02656C1.94205 5.14687 2.42811 5.54531 8.8143 10.0594C9.6228 10.6313 11.2302 12.0188 12.3467 12Z" fill="#000"/>
</svg>
